<svg width="19" height="20" viewBox="0 0 19 20" fill="none" xmlns="http://www.w3.org/2000/svg">
<path d="M9.6667 20C11.1121 20 12.2845 18.8809 12.2845 17.5H7.04888C7.04888 18.8809 8.22131 20 9.6667 20ZM18.481 14.152C17.6904 13.341 16.211 12.1211 16.211 8.125C16.211 5.08984 13.9816 2.66016 10.9754 2.06406V1.25C10.9754 0.559766 10.3894 0 9.6667 0C8.944 0 8.35799 0.559766 8.35799 1.25V2.06406C5.35181 2.66016 3.12235 5.08984 3.12235 8.125C3.12235 12.1211 1.643 13.341 0.852372 14.152C0.606836 14.4039 0.497982 14.7051 0.500028 15C0.50453 15.6406 1.0312 16.25 1.81364 16.25H17.5197C18.3022 16.25 18.8293 15.6406 18.8334 15C18.8354 14.7051 18.7266 14.4035 18.481 14.152Z" fill="white"/>
</svg>
