<svg width="12" height="14" viewBox="0 0 12 14" fill="none" xmlns="http://www.w3.org/2000/svg">
<path d="M6 6.6C7.89375 6.6 9.42857 5.12273 9.42857 3.3C9.42857 1.47727 7.89375 0 6 0C4.10625 0 2.57143 1.47727 2.57143 3.3C2.57143 5.12273 4.10625 6.6 6 6.6ZM8.4 7.425H7.95268C7.35804 7.68797 6.69643 7.8375 6 7.8375C5.30357 7.8375 4.64464 7.68797 4.04732 7.425H3.6C1.6125 7.425 0 8.97703 0 10.89V11.9625C0 12.6457 0.575893 13.2 1.28571 13.2H10.7143C11.4241 13.2 12 12.6457 12 11.9625V10.89C12 8.97703 10.3875 7.425 8.4 7.425Z" fill="#BDBDBD"/>
</svg>
